<svg width="20" height="8" viewBox="0 0 72 111"  fill="white" xmlns="http://www.w3.org/2000/svg">
<path d="M52.192 5.77599C44.4267 2.78933 37.088 1.296 30.176 1.296C23.3493 1.296 18.016 2.74666 14.176 5.64799C10.336 8.54933 8.416 12.56 8.416 17.68C8.416 23.9093 11.6587 28.7307 18.144 32.144C21.0453 33.5947 24.2027 34.96 27.616 36.24C31.1147 37.4347 34.6133 38.8 38.112 40.336C41.6107 41.872 44.8107 43.6213 47.712 45.584C50.6133 47.5467 52.96 50.2773 54.752 53.776C56.544 57.1893 57.44 61.584 57.44 66.96C57.44 72.2507 55.9467 76.7733 52.96 80.528C49.9733 84.2827 46.3467 86.8427 42.08 88.208C37.8987 89.488 32.992 90.128 27.36 90.128C16.864 90.128 7.904 87.5253 0.48 82.32L1.12 81.296C3.936 83.5147 7.56267 85.3493 12 86.8C16.5227 88.1653 21.1307 88.848 25.824 88.848C32.736 88.848 38.624 87.2693 43.488 84.112C48.4373 80.8693 50.912 76.1333 50.912 69.904C50.912 63.0773 47.6693 57.744 41.184 53.904C38.2827 52.1973 35.0827 50.6187 31.584 49.168C28.1707 47.7173 24.7147 46.224 21.216 44.688C17.7173 43.0667 14.5173 41.2747 11.616 39.312C5.13067 35.0453 1.888 28.9867 1.888 21.136C1.888 14.9067 3.97867 9.872 8.16 6.032C12.3413 2.10666 18.6133 0.143997 26.976 0.143997C35.424 0.143997 44 1.59466 52.704 4.49599L52.192 5.77599Z" fill="white"/>
<path d="M48.76 22.68V21.4H71.544V94.104C71.544 100.845 70.1787 105.368 67.448 107.672C64.7173 109.891 60.5787 111 55.032 111C49.5707 111 44.7067 110.189 40.44 108.568L40.824 107.544C44.92 109.165 49.144 109.976 53.496 109.976C56.3973 109.976 58.3173 108.739 59.256 106.264C60.28 103.789 60.792 99.7787 60.792 94.232V22.68H48.76Z" fill="white"/>
</svg>
